/* XPM */
static char * pdf_16x16_cc0_xpm[] = {
"32 32 39 1",
" 	c None",
".	c #EF4036",
"+	c #DBC2C2",
"@	c #DBC3C3",
"#	c #D6D6D7",
"$	c #D6D5D6",
"%	c #E88684",
"&	c #E1ADAC",
"*	c #E2A9A8",
"=	c #EF4940",
"-	c #FFFFFF",
";	c #FEFBFB",
">	c #FBE2E2",
",	c #F1706C",
"'	c #FFFCFC",
")	c #FDEEEE",
"!	c #F7C2C1",
"~	c #EF4F47",
"{	c #F2807C",
"]	c #F0544D",
"^	c #F9CECE",
"/	c #F9CDCD",
"(	c #F0564F",
"_	c #F38A88",
":	c #FCE6E5",
"<	c #F8C9C8",
"[	c #F0524B",
"}	c #F17571",
"|	c #FEF9F9",
"1	c #FBE3E3",
"2	c #F1716D",
"3	c #F05F5A",
"4	c #FDF0F0",
"5	c #F17470",
"6	c #F28986",
"7	c #FBE5E4",
"8	c #F8C8C7",
"9	c #FFFDFD",
"0	c #FDEFEF",
"                                ",
"                                ",
"                                ",
"      ..............+           ",
"      ..............@#$         ",
"      ..............@##$        ",
"      ..............@####       ",
"      ..............%&&&&*      ",
"      ....................      ",
"      ....................      ",
"      ....................      ",
"      ....................      ",
"      ....................      ",
"      =--;>,=--')!~.=----{      ",
"      ='.]^/='.(_:<.='....      ",
"      ='.[//='...}|.='....      ",
"      =--;12='....'3=---4.      ",
"      ='....='...5|.='....      ",
"      ='....='.]678.='....      ",
"      ='....=--90!~.='....      ",
"      ....................      ",
"      ....................      ",
"      ....................      ",
"      ....................      ",
"      ....................      ",
"      ....................      ",
"      ....................      ",
"      ....................      ",
"      ....................      ",
"                                ",
"                                ",
"                                "};
